<svg width="64" height="65" viewBox="0 0 64 65" fill="none" xmlns="http://www.w3.org/2000/svg">
<g id="streamline:champagne-party-alcohol" clip-path="url(#clip0_327_730)">
<g id="Group">
<g id="Vector" filter="url(#filter0_dd_327_730)">
<path d="M17.1063 42.1685L12.1966 59.3845M5.4126 57.4462L18.976 61.3136M9.96117 27.9788L18.8069 4.52734L35.5063 9.28163L30.6515 33.8759C30.3674 35.3455 29.7809 36.74 28.9292 37.9709C28.0774 39.2017 26.9791 40.2421 25.7039 41.0258C24.4287 41.8096 23.0045 42.3197 21.5217 42.5237C20.0388 42.7277 18.5298 42.6212 17.0903 42.2109C15.6508 41.8006 14.3123 41.0955 13.1599 40.1404C12.0074 39.1853 11.0661 38.001 10.3957 36.6627C9.72538 35.3244 9.34057 33.8613 9.26575 32.3664C9.19094 30.8715 9.42776 29.3773 9.96117 27.9788Z" stroke="#17292C" stroke-width="4.57143" stroke-linecap="round" stroke-linejoin="round" shape-rendering="crispEdges"/>
</g>
<g id="Vector_2" filter="url(#filter1_dd_327_730)">
<path d="M14.3909 16.2166L33.0697 21.588" stroke="#17292C" stroke-width="4.57143" shape-rendering="crispEdges"/>
</g>
<g id="Vector_3" filter="url(#filter2_dd_327_730)">
<path d="M39.1635 41.4736C41.1064 42.4322 43.2928 42.7841 45.4385 42.4836C47.5841 42.1831 49.5897 41.2441 51.1946 39.7886C52.7995 38.3331 53.9294 36.4285 54.4375 34.3223C54.9455 32.2162 54.8082 30.0059 54.0434 27.9788L45.1886 4.52734L42.5555 5.27249M46.8937 42.1685L51.8034 59.3845M58.5875 57.4462L45.024 61.3136M49.6092 16.2713L41.9794 18.4656" stroke="#17292C" stroke-width="4.57143" stroke-linecap="round" stroke-linejoin="round" shape-rendering="crispEdges"/>
</g>
</g>
</g>
<defs>
<filter id="filter0_dd_327_730" x="-0.873657" y="0.241211" width="42.666" height="71.3586" filterUnits="userSpaceOnUse" color-interpolation-filters="sRGB">
<feFlood flood-opacity="0" result="BackgroundImageFix"/>
<feColorMatrix in="SourceAlpha" type="matrix" values="0 0 0 0 0 0 0 0 0 0 0 0 0 0 0 0 0 0 127 0" result="hardAlpha"/>
<feOffset dy="4"/>
<feGaussianBlur stdDeviation="2"/>
<feComposite in2="hardAlpha" operator="out"/>
<feColorMatrix type="matrix" values="0 0 0 0 0 0 0 0 0 0 0 0 0 0 0 0 0 0 0.25 0"/>
<feBlend mode="normal" in2="BackgroundImageFix" result="effect1_dropShadow_327_730"/>
<feColorMatrix in="SourceAlpha" type="matrix" values="0 0 0 0 0 0 0 0 0 0 0 0 0 0 0 0 0 0 127 0" result="hardAlpha"/>
<feOffset dy="-1"/>
<feGaussianBlur stdDeviation="0.5"/>
<feComposite in2="hardAlpha" operator="out"/>
<feColorMatrix type="matrix" values="0 0 0 0 0.854902 0 0 0 0 0.890196 0 0 0 0 0.898039 0 0 0 1 0"/>
<feBlend mode="normal" in2="effect1_dropShadow_327_730" result="effect2_dropShadow_327_730"/>
<feBlend mode="normal" in="SourceGraphic" in2="effect2_dropShadow_327_730" result="shape"/>
</filter>
<filter id="filter1_dd_327_730" x="9.75916" y="12.0198" width="27.9423" height="19.7649" filterUnits="userSpaceOnUse" color-interpolation-filters="sRGB">
<feFlood flood-opacity="0" result="BackgroundImageFix"/>
<feColorMatrix in="SourceAlpha" type="matrix" values="0 0 0 0 0 0 0 0 0 0 0 0 0 0 0 0 0 0 127 0" result="hardAlpha"/>
<feOffset dy="4"/>
<feGaussianBlur stdDeviation="2"/>
<feComposite in2="hardAlpha" operator="out"/>
<feColorMatrix type="matrix" values="0 0 0 0 0 0 0 0 0 0 0 0 0 0 0 0 0 0 0.25 0"/>
<feBlend mode="normal" in2="BackgroundImageFix" result="effect1_dropShadow_327_730"/>
<feColorMatrix in="SourceAlpha" type="matrix" values="0 0 0 0 0 0 0 0 0 0 0 0 0 0 0 0 0 0 127 0" result="hardAlpha"/>
<feOffset dy="-1"/>
<feGaussianBlur stdDeviation="0.5"/>
<feComposite in2="hardAlpha" operator="out"/>
<feColorMatrix type="matrix" values="0 0 0 0 0.854902 0 0 0 0 0.890196 0 0 0 0 0.898039 0 0 0 1 0"/>
<feBlend mode="normal" in2="effect1_dropShadow_327_730" result="effect2_dropShadow_327_730"/>
<feBlend mode="normal" in="SourceGraphic" in2="effect2_dropShadow_327_730" result="shape"/>
</filter>
<filter id="filter2_dd_327_730" x="32.8772" y="0.241211" width="31.9966" height="71.3586" filterUnits="userSpaceOnUse" color-interpolation-filters="sRGB">
<feFlood flood-opacity="0" result="BackgroundImageFix"/>
<feColorMatrix in="SourceAlpha" type="matrix" values="0 0 0 0 0 0 0 0 0 0 0 0 0 0 0 0 0 0 127 0" result="hardAlpha"/>
<feOffset dy="4"/>
<feGaussianBlur stdDeviation="2"/>
<feComposite in2="hardAlpha" operator="out"/>
<feColorMatrix type="matrix" values="0 0 0 0 0 0 0 0 0 0 0 0 0 0 0 0 0 0 0.25 0"/>
<feBlend mode="normal" in2="BackgroundImageFix" result="effect1_dropShadow_327_730"/>
<feColorMatrix in="SourceAlpha" type="matrix" values="0 0 0 0 0 0 0 0 0 0 0 0 0 0 0 0 0 0 127 0" result="hardAlpha"/>
<feOffset dy="-1"/>
<feGaussianBlur stdDeviation="0.5"/>
<feComposite in2="hardAlpha" operator="out"/>
<feColorMatrix type="matrix" values="0 0 0 0 0.854902 0 0 0 0 0.890196 0 0 0 0 0.898039 0 0 0 1 0"/>
<feBlend mode="normal" in2="effect1_dropShadow_327_730" result="effect2_dropShadow_327_730"/>
<feBlend mode="normal" in="SourceGraphic" in2="effect2_dropShadow_327_730" result="shape"/>
</filter>
<clipPath id="clip0_327_730">
<rect width="64" height="64" fill="white" transform="translate(0 0.5)"/>
</clipPath>
</defs>
</svg>
