<svg width="64" height="65" viewBox="0 0 64 65" fill="none" xmlns="http://www.w3.org/2000/svg">
<g id="ic:outline-handshake" clip-path="url(#clip0_327_739)">
<g id="Vector" filter="url(#filter0_dd_327_739)">
<path d="M32.5866 53.4333C32.1066 53.9133 31.2533 53.9933 30.6933 53.4333C30.4435 53.1816 30.3033 52.8413 30.3033 52.4866C30.3033 52.132 30.4435 51.7917 30.6933 51.54L39.7333 42.5L35.9733 38.74L26.9333 47.78C26.4266 48.3133 25.5733 48.2866 25.0399 47.78C24.7901 47.5282 24.65 47.188 24.65 46.8333C24.65 46.4787 24.7901 46.1384 25.0399 45.8866L34.0799 36.8466L30.3199 33.0866L21.2799 42.1266C20.7999 42.6066 19.9466 42.6866 19.3866 42.1266C19.1425 41.872 19.0062 41.5328 19.0062 41.18C19.0062 40.8272 19.1425 40.488 19.3866 40.2333L28.4266 31.1933L24.6399 27.4333L15.5999 36.4733C15.1199 36.9533 14.2666 37.0333 13.7066 36.4733C13.4625 36.2186 13.3262 35.8795 13.3262 35.5266C13.3262 35.1738 13.4625 34.8347 13.7066 34.58L25.3866 22.9L30.3733 27.86C32.9066 30.3933 37.2799 30.3666 39.8133 27.86C42.4266 25.2466 42.4266 21.0333 39.8133 18.42L34.8533 13.46L35.5999 12.7133C37.6799 10.6333 41.0666 10.6333 43.1466 12.7133L54.4533 24.02C56.5333 26.1 56.5333 29.4866 54.4533 31.5666L32.5866 53.4333ZM58.2133 35.3533C60.211 33.3498 61.3329 30.6359 61.3329 27.8066C61.3329 24.9773 60.211 22.2635 58.2133 20.26L46.9066 8.95331C44.9031 6.95557 42.1893 5.83374 39.3599 5.83374C36.5306 5.83374 33.8168 6.95557 31.8133 8.95331L31.0666 9.69997L30.3199 8.95331C28.3165 6.95557 25.6026 5.83374 22.7733 5.83374C19.944 5.83374 17.2301 6.95557 15.2266 8.95331L5.78661 18.3933C3.98261 20.1911 2.88296 22.5762 2.68725 25.1155C2.49154 27.6549 3.21274 30.1803 4.71995 32.2333L8.58661 28.3666C8.07113 27.3601 7.8889 26.2158 8.06625 25.099C8.2436 23.9822 8.77135 22.9506 9.57328 22.1533L19.0133 12.7133C21.0933 10.6333 24.4799 10.6333 26.5599 12.7133L36.0533 22.2066C36.5333 22.6866 36.6133 23.54 36.0533 24.1C35.4933 24.66 34.6399 24.58 34.1599 24.1L25.3866 15.3533L9.91995 30.7933C7.30661 33.38 7.30661 37.62 9.91995 40.2333C10.9599 41.2733 12.2933 41.9133 13.7066 42.1C13.8934 43.5339 14.549 44.8659 15.5715 45.8884C16.5941 46.9109 17.926 47.5666 19.3599 47.7533C19.5467 49.1873 20.2024 50.5192 21.2249 51.5417C22.2474 52.5642 23.5793 53.2199 25.0133 53.4066C25.1999 54.8466 25.8399 56.1533 26.8799 57.1933C28.1333 58.4466 29.8133 59.14 31.5999 59.14C33.3866 59.14 35.0666 58.4466 36.3199 57.1933L58.2133 35.3533Z" fill="#17292C"/>
</g>
</g>
<defs>
<filter id="filter0_dd_327_739" x="-1.34424" y="3.83374" width="66.6771" height="63.3062" filterUnits="userSpaceOnUse" color-interpolation-filters="sRGB">
<feFlood flood-opacity="0" result="BackgroundImageFix"/>
<feColorMatrix in="SourceAlpha" type="matrix" values="0 0 0 0 0 0 0 0 0 0 0 0 0 0 0 0 0 0 127 0" result="hardAlpha"/>
<feOffset dy="4"/>
<feGaussianBlur stdDeviation="2"/>
<feComposite in2="hardAlpha" operator="out"/>
<feColorMatrix type="matrix" values="0 0 0 0 0 0 0 0 0 0 0 0 0 0 0 0 0 0 0.25 0"/>
<feBlend mode="normal" in2="BackgroundImageFix" result="effect1_dropShadow_327_739"/>
<feColorMatrix in="SourceAlpha" type="matrix" values="0 0 0 0 0 0 0 0 0 0 0 0 0 0 0 0 0 0 127 0" result="hardAlpha"/>
<feOffset dy="-1"/>
<feGaussianBlur stdDeviation="0.5"/>
<feComposite in2="hardAlpha" operator="out"/>
<feColorMatrix type="matrix" values="0 0 0 0 0.854902 0 0 0 0 0.890196 0 0 0 0 0.898039 0 0 0 1 0"/>
<feBlend mode="normal" in2="effect1_dropShadow_327_739" result="effect2_dropShadow_327_739"/>
<feBlend mode="normal" in="SourceGraphic" in2="effect2_dropShadow_327_739" result="shape"/>
</filter>
<clipPath id="clip0_327_739">
<rect width="64" height="64" fill="white" transform="translate(0 0.5)"/>
</clipPath>
</defs>
</svg>
