<?xml version="1.0" standalone="no"?>
<!DOCTYPE svg PUBLIC "-//W3C//DTD SVG 20010904//EN"
 "http://www.w3.org/TR/2001/REC-SVG-20010904/DTD/svg10.dtd">
<svg version="1.0" xmlns="http://www.w3.org/2000/svg"
 width="278.000000pt" height="432.000000pt" viewBox="0 0 278.000000 432.000000"
 preserveAspectRatio="xMidYMid meet">

<g transform="translate(0.000000,432.000000) scale(0.100000,-0.100000)"
fill="rgba(56,69,65,255)" stroke="none">
<path d="M2161 3495 c-32 -104 -65 -145 -116 -145 -25 0 -8 -18 24 -25 40 -9
56 -30 82 -109 l22 -70 22 69 c24 71 59 115 95 115 10 0 22 5 25 10 3 6 -5 10
-19 10 -41 0 -76 40 -101 115 l-22 69 -12 -39z"/>
<path d="M307 3453 l-97 -4 2 -972 c2 -642 6 -971 13 -970 7 2 12 320 15 915
3 502 8 906 12 898 20 -47 369 -819 680 -1507 103 -228 146 -313 158 -313 18
0 24 70 36 465 6 206 17 323 45 481 66 375 201 673 375 832 57 53 149 112 156
102 2 -3 2 -134 0 -292 l-4 -287 -111 -3 -112 -3 -3 -920 c-2 -506 0 -957 3
-1002 l7 -83 582 0 582 0 36 193 c20 105 37 199 39 207 2 8 -1 15 -8 15 -6 0
-31 -38 -54 -84 -55 -110 -147 -205 -241 -250 -85 -40 -203 -51 -498 -48
l-205 2 0 173 c0 94 1 368 3 609 l2 436 38 -59 c56 -86 155 -158 295 -213 109
-44 170 -76 211 -112 20 -17 40 -28 46 -24 6 4 10 51 10 116 l0 109 -72 0
c-106 0 -251 24 -300 50 -99 51 -164 129 -207 243 -20 54 -21 76 -21 337 l0
280 148 0 c197 0 420 -16 495 -36 94 -24 176 -66 241 -124 42 -36 61 -48 65
-38 4 7 5 59 3 114 l-3 102 -370 7 -369 7 -2 322 -3 321 -75 -3 c-162 -7 -299
-90 -423 -257 -174 -235 -281 -577 -321 -1030 l-11 -130 -313 705 c-172 388
-321 711 -330 718 -9 6 -23 11 -31 10 -9 -1 -60 -4 -114 -5z"/>
<path d="M2370 3086 c0 -9 -8 -24 -19 -35 -18 -18 -18 -18 0 -30 11 -6 19 -18
19 -26 0 -24 17 -17 24 10 4 14 14 25 23 25 14 0 13 3 -5 16 -12 8 -22 21 -22
29 0 8 -4 17 -10 20 -5 3 -10 -1 -10 -9z"/>
</g>
</svg>
