<?xml version="1.0" standalone="no"?>
<!DOCTYPE svg PUBLIC "-//W3C//DTD SVG 20010904//EN"
 "http://www.w3.org/TR/2001/REC-SVG-20010904/DTD/svg10.dtd">
<svg version="1.0" xmlns="http://www.w3.org/2000/svg"
 width="3000.000000pt" height="3000.000000pt" viewBox="0 0 3000.000000 3000.000000"
 preserveAspectRatio="xMidYMid meet">

<g transform="translate(0.000000,3000.000000) scale(0.100000,-0.100000)"
fill="#3d0617" stroke="none">
<path d="M18965 20205 c-422 -40 -714 -149 -1025 -380 -183 -136 -368 -333
-503 -533 -79 -117 -187 -340 -236 -488 -127 -383 -129 -780 -5 -1165 43 -136
144 -345 217 -449 l52 -75 242 -3 c243 -3 283 2 283 32 0 8 7 16 15 20 22 8
19 23 -16 79 -60 98 -188 353 -229 456 -79 198 -136 432 -160 653 -36 337 31
696 186 998 193 376 485 600 944 724 113 30 197 29 360 -4 221 -45 492 -158
654 -274 154 -110 355 -315 456 -465 86 -129 165 -334 234 -606 82 -328 101
-494 93 -818 -8 -344 -48 -575 -117 -675 -31 -44 -39 -81 -17 -83 6 0 80 0
162 1 177 1 159 -11 240 155 168 344 260 819 226 1175 -45 463 -238 840 -623
1215 -304 297 -552 426 -965 500 -124 22 -305 26 -468 10z m-915 -388 c0 -2
-10 -12 -22 -23 l-23 -19 19 23 c18 21 26 27 26 19z"/>
<path d="M7280 20183 c-90 -2 -168 -7 -172 -11 -10 -10 -17 -882 -20 -2497
l-3 -1360 30 0 30 0 6 900 c3 495 7 1291 8 1770 0 478 5 865 9 860 8 -9 347
-779 1307 -2970 130 -297 246 -548 257 -557 28 -25 57 -22 67 5 5 12 14 162
20 332 21 566 106 1283 216 1825 59 293 136 520 265 785 159 330 335 538 580
690 41 25 78 45 82 45 4 0 8 -825 8 -1834 0 -1447 3 -1836 12 -1842 7 -5 101
-10 208 -12 155 -3 198 -1 207 10 13 15 22 3825 9 3846 -10 17 -60 15 -172 -8
-137 -28 -214 -54 -324 -112 -269 -139 -483 -371 -654 -707 -116 -229 -214
-503 -270 -751 -56 -252 -123 -676 -156 -980 -12 -107 -25 -206 -28 -218 -6
-19 -73 125 -317 685 -170 389 -445 1020 -612 1402 -166 382 -308 698 -315
703 -7 4 -35 7 -63 6 -27 -2 -124 -4 -215 -5z"/>
<path d="M11745 20181 l-990 -6 4 -1930 c2 -1479 6 -1933 15 -1943 10 -10 175
-11 844 -6 803 7 832 8 852 27 25 22 23 65 -2 81 -12 7 -35 5 -85 -7 -57 -15
-151 -20 -590 -29 -286 -6 -528 -8 -537 -5 -14 6 -16 91 -16 905 0 494 3 1014
7 1155 l6 257 35 -51 c83 -124 269 -289 437 -387 39 -22 122 -63 185 -90 190
-81 269 -128 371 -218 55 -49 61 -51 83 -28 14 13 16 48 16 229 0 212 0 214
-22 227 -15 8 -90 15 -208 19 -352 13 -537 78 -712 251 -71 69 -138 163 -168
234 -19 44 -20 71 -20 643 l0 598 61 7 c34 3 168 6 298 6 457 0 709 -47 997
-185 135 -64 220 -120 295 -192 42 -41 62 -54 80 -51 l24 3 3 234 c1 157 -1
238 -8 245 -13 13 -19 13 -1255 7z"/>
<path d="M13588 20183 c-123 -3 -128 -4 -132 -26 -3 -12 -7 -688 -10 -1503 -4
-1119 -2 -1484 6 -1492 17 -17 45 -15 52 4 3 9 7 345 7 747 1 403 5 1012 8
1354 l6 621 117 -261 c773 -1734 1089 -2444 1096 -2455 5 -10 59 -14 232 -16
124 -1 232 1 241 6 22 10 26 39 39 258 30 519 129 1050 280 1512 128 391 328
715 567 922 71 62 210 156 229 156 4 0 5 -645 3 -1432 l-4 -1433 70 -6 c39 -4
137 -8 219 -10 l148 -4 16 30 c14 27 15 179 8 1510 -6 1378 -8 1481 -24 1497
-16 16 -24 16 -125 2 -283 -39 -464 -130 -668 -335 -175 -176 -325 -408 -433
-671 -170 -415 -319 -1130 -352 -1691 -4 -65 -10 -115 -14 -110 -4 4 -280 636
-615 1403 -334 767 -615 1403 -623 1413 -16 18 -5 18 -344 10z"/>
<path d="M21398 20173 c-11 -13 -14 -300 -16 -1512 -3 -1434 -2 -1497 15
-1513 15 -13 56 -17 225 -23 l207 -8 12 29 c8 21 13 319 18 1029 l6 1000 29
-75 c104 -270 263 -479 437 -577 134 -76 303 -120 498 -130 133 -7 180 -24
248 -93 121 -121 179 -279 258 -710 89 -485 106 -553 180 -701 56 -114 113
-196 196 -284 157 -165 346 -257 614 -298 131 -21 352 -25 383 -8 28 15 26 53
-3 61 -39 10 -190 103 -259 159 -81 65 -209 209 -278 313 -70 104 -162 297
-269 563 -139 348 -248 560 -364 710 -107 138 -219 232 -365 305 l-64 32 90
33 c201 71 408 205 493 318 99 130 161 358 161 587 0 131 -30 209 -128 331
-153 192 -335 317 -582 402 -198 67 -336 77 -1117 76 -544 -1 -613 -2 -625
-16z m1153 -84 c201 -16 389 -80 519 -178 126 -95 232 -265 271 -436 25 -112
35 -325 21 -420 -14 -84 -89 -244 -151 -322 -57 -71 -195 -162 -307 -202 -71
-26 -110 -34 -189 -38 -92 -5 -108 -3 -195 26 -124 40 -208 90 -295 176 -117
115 -212 277 -297 504 -68 185 -68 184 -68 555 l0 335 93 4 c224 8 473 6 598
-4z"/>
<path d="M26442 20043 c-116 -173 -416 -691 -585 -1010 -231 -435 -470 -987
-597 -1378 -56 -172 -123 -439 -151 -600 -29 -169 -32 -407 -6 -505 76 -283
289 -376 463 -203 62 62 113 153 230 413 120 268 160 349 225 455 165 274 393
444 669 501 58 12 134 18 239 18 l154 1 297 -695 c164 -382 309 -707 322 -721
32 -35 104 -44 351 -43 198 1 218 5 196 45 -5 10 -9 27 -9 39 0 12 -371 857
-825 1878 -454 1022 -825 1866 -825 1876 0 22 -27 45 -52 46 -11 0 -46 -42
-96 -117z m220 -1325 l386 -903 -131 -7 c-236 -12 -350 -38 -498 -114 -185
-96 -329 -232 -452 -432 -70 -112 -124 -220 -222 -442 -104 -234 -144 -313
-198 -386 -73 -100 -159 -128 -242 -80 -128 75 -182 308 -140 601 42 297 146
668 288 1030 118 302 337 778 486 1055 102 190 325 580 332 580 3 0 179 -406
391 -902z"/>
<path d="M18520 19191 c0 -11 -4 -22 -9 -25 -5 -3 -12 -23 -16 -43 -14 -81
-73 -249 -105 -301 -36 -58 -137 -109 -257 -128 -55 -8 -47 -20 20 -29 187
-26 266 -114 327 -365 11 -47 25 -93 30 -102 6 -10 10 -25 10 -33 0 -8 4 -15
9 -15 8 0 25 51 53 155 17 67 50 158 74 206 39 79 117 130 231 150 93 16 93
19 -6 44 -51 14 -112 36 -136 49 -46 28 -97 96 -115 155 -6 20 -15 45 -20 56
-5 11 -19 56 -30 99 -25 99 -42 146 -52 146 -4 0 -8 -9 -8 -19z"/>
<path d="M19595 18315 c-33 -143 -69 -198 -142 -218 -45 -12 -58 -27 -23 -27
32 0 98 -37 112 -63 6 -12 24 -60 38 -106 30 -94 25 -97 66 33 24 76 55 113
107 128 60 16 64 24 18 32 -58 9 -103 57 -125 131 -9 33 -23 74 -31 90 l-13
30 -7 -30z"/>
<path d="M18434 16377 c0 -416 -11 -750 -30 -914 l-6 -53 69 0 70 0 -5 550
c-3 316 -1 550 4 549 14 -1 639 -675 887 -954 83 -93 158 -171 168 -173 16 -3
17 21 12 405 -4 305 -1 484 11 710 9 166 16 308 16 315 0 9 -18 13 -63 13
l-62 0 3 -545 4 -545 -35 35 c-71 72 -281 296 -639 683 -207 222 -377 397
-386 397 -16 0 -17 -35 -18 -473z"/>
<path d="M22650 16836 c-206 -60 -313 -207 -297 -411 13 -170 93 -253 351
-364 243 -105 306 -174 294 -326 -10 -121 -79 -215 -186 -256 -143 -54 -330
14 -408 147 -14 24 -31 44 -38 44 -7 0 -17 -28 -24 -67 -7 -38 -15 -79 -18
-93 -5 -22 2 -29 52 -60 139 -84 356 -93 519 -22 200 86 309 316 249 523 -13
44 -28 66 -83 120 -57 54 -85 73 -167 108 -328 140 -395 205 -382 363 12 141
115 232 263 232 106 0 174 -43 227 -143 26 -48 48 -64 48 -34 0 10 12 50 25
88 l25 70 -27 22 c-57 46 -130 66 -258 69 -79 2 -135 -1 -165 -10z"/>
<path d="M13075 16118 l0 -708 368 0 367 0 0 56 0 56 -27 -6 c-16 -4 -139 -9
-275 -13 l-247 -6 -6 24 c-3 13 -4 150 -3 304 l3 280 180 -2 c99 -1 212 -4
250 -8 l70 -5 0 60 0 60 -190 -7 c-104 -5 -217 -8 -250 -8 l-60 0 -3 135 c-2
74 0 195 3 268 l7 132 102 -1 c55 0 176 -6 269 -12 l167 -12 0 60 0 60 -362 0
-363 0 0 -707z"/>
<path d="M14580 16822 c0 -1 75 -183 166 -405 91 -221 220 -538 286 -705 l121
-303 69 3 70 3 98 245 c128 321 221 544 369 882 66 152 121 278 121 280 0 2
-34 3 -75 3 l-75 0 -26 -80 c-101 -304 -431 -1143 -445 -1128 -19 22 -335 826
-433 1103 l-37 105 -104 0 c-58 0 -105 -1 -105 -3z"/>
<path d="M16735 16118 l0 -708 368 0 367 0 0 56 0 56 -27 -6 c-16 -4 -139 -9
-275 -13 l-247 -6 -6 24 c-3 13 -4 150 -3 304 l3 280 180 -2 c99 -1 212 -4
250 -8 l70 -5 0 60 0 60 -190 -7 c-104 -5 -217 -8 -250 -8 l-60 0 -3 135 c-2
74 0 195 3 268 l7 132 102 -1 c55 0 176 -6 269 -12 l167 -12 0 60 0 60 -362 0
-363 0 0 -707z"/>
<path d="M20485 16763 l0 -62 100 7 c55 4 154 7 220 7 l120 0 3 -480 c1 -264
-1 -558 -5 -653 l-8 -172 104 0 c94 0 103 1 96 18 -10 23 -19 1142 -10 1227
l7 68 171 -6 c95 -4 192 -9 217 -13 l45 -6 0 64 0 63 -530 0 -530 0 0 -62z"/>
</g>
</svg>
